<svg aria-hidden="true" style="position:absolute;width:0;height:0;overflow:hidden" xmlns="http://www.w3.org/2000/svg">
<defs>
<symbol id="hexagon-for-Dashboard" viewBox="0 0 32 32">
<path d="M16 30.173c-.893 0-1.8-.2-2.507-.613L6.16 25.333c-2.987-2.013-3.173-2.32-3.173-5.48v-7.707c0-3.16.173-3.467 3.107-5.453l7.387-4.267c1.4-.813 3.6-.813 5 0l7.36 4.24c2.987 2.013 3.173 2.32 3.173 5.48v7.693c0 3.16-.173 3.467-3.107 5.453l-7.387 4.267c-.72.413-1.627.613-2.52.613zm0-26.347c-.56 0-1.107.107-1.493.333l-7.333 4.24c-2.173 1.467-2.173 1.467-2.173 3.747v7.693c0 2.28 0 2.28 2.227 3.787l7.28 4.2c.787.453 2.213.453 3 0l7.333-4.24c2.16-1.467 2.16-1.467 2.16-3.747v-7.693c0-2.28 0-2.28-2.227-3.787l-7.28-4.2c-.387-.227-.933-.333-1.493-.333z"/>
<path d="M16 21c-2.76 0-5-2.24-5-5s2.24-5 5-5 5 2.24 5 5-2.24 5-5 5zm0-8c-1.653 0-3 1.347-3 3s1.347 3 3 3 3-1.347 3-3-1.347-3-3-3z"/>
</symbol>
</defs>
</svg>